<?xml version="1.0" encoding="UTF-8"?>
<svg id="Layer_2" data-name="Layer 2" xmlns="http://www.w3.org/2000/svg" viewBox="0 0 12.48 16.65">
  <defs>
    <style>
      .cls-1 {
        fill: #fff;
      }
    </style>
  </defs>
  <g id="Layer_1-2" data-name="Layer 1">
    <g>
      <path d="m5.55.7h.68v3.45h1.39v.68h2.07v.7h1.4v.71h0c-.23,0-.45,0-.7,0v2.76h-.7v-3.44h-1.38v2.75h-.7v-3.45h-1.39v2.76h-.68c0-.06,0-.11,0-.16,0-2.2,0-4.39,0-6.59,0-.06,0-.11,0-.17h0Z"/>
      <path d="m2.78,9.02h.68V.69h.69v-.69h1.4c0,.24,0,.47,0,.7,0,0,0,0,0,0h-1.4v10.39h-.7v-1.39h-.67v-.68h0Z"/>
      <path d="m11.1,13.88v2.76H3.47v-.67h0c.08,0,.16,0,.24-.01,2.16,0,4.32,0,6.49,0h.22v-2.08h.7,0Z"/>
      <path d="m11.78,6.94h.69v3.47h-.68v3.48h-.69s0,0,0,0v-3.49h.68v-3.47h0Z"/>
      <path d="m.69,9.7h-.69v-2.06h2.06v.68h.71c0,.25,0,.48,0,.71,0,0,0,0,0,0h-.72v-.68H.69v1.37h0Z"/>
      <path d="m2.78,14.57h-.72v-2.09h0c.23,0,.46,0,.72,0v2.09h0Z"/>
      <path d="m1.38,11.11h-.68v-1.41h0c.23,0,.45,0,.68,0v1.4h0Z"/>
      <path d="m3.47,15.97h-.68c0-.49,0-.95,0-1.41,0,0,0,0,0,0h.68v1.4h0Z"/>
      <path d="m2.06,12.48h-.68v-1.37s0,0,0,0h.69v1.37h0Z"/>
      <path d="m11.1,6.25h.68v.68s0,0,0,0h-.68v-.68h0Z"/>
      <path class="cls-1" d="m11.1,6.25v.68h.68v3.47h-.68v3.49h-.7v2.08h-.22c-2.16,0-4.32,0-6.49,0-.08,0-.16,0-.24.01v-1.4h-.68v-2.09h-.72v-1.37h-.69c0-.46,0-.92,0-1.4h-.68v-1.37h1.38v.68h.72v.68h.67v1.39h.7V.7h1.4c0,.06,0,.11,0,.17,0,2.2,0,4.39,0,6.59,0,.05,0,.1,0,.16h.68v-2.76h1.39v3.45h.7v-2.75h1.38v3.44h.7v-2.76h.7Z"/>
    </g>
  </g>
</svg>