<?xml version="1.0" encoding="UTF-8"?>
<svg id="Layer_2" data-name="Layer 2" xmlns="http://www.w3.org/2000/svg" viewBox="0 0 10.66 15.86">
  <defs>
    <style>
      .cls-1 {
        fill: #fff;
      }
    </style>
  </defs>
  <g id="Layer_1-2" data-name="Layer 1">
    <g>
      <path d="m8,14.96c0,.3,0,.6,0,.89h-1.78c0-.3,0-.6,0-.89h0c.6,0,1.19,0,1.79,0h0Z"/>
      <path d="m1.78,13.18v.89H0V0h1.78v.74s0,0,0,0c-.3,0-.59,0-.89,0v12.45h.89,0Z"/>
      <path d="m9.78,8.74h.88v1.77h-3.55v.88h0c-.29,0-.59,0-.88,0v-1.77h3.56v-.88h0Z"/>
      <path d="m6.21,14.96h-.89v-1.79s0,0,0,0h.89v1.78h0Z"/>
      <path d="m5.32,13.18h-.89v-1.78s0,0,0,0h.88s.02.05.02.06c0,.58,0,1.15,0,1.73h0Z"/>
      <path d="m8,13.18h.88v1.78c-.3,0-.59,0-.88,0h0c0-.59,0-1.19,0-1.78h0Z"/>
      <path d="m7.1,11.39c.23,0,.46,0,.69.01.06,0,.12,0,.2,0v1.77h0c-.29,0-.59,0-.89,0v-1.78h0Z"/>
      <path d="m4.43,11.39c-.22,0-.44,0-.65.01-.07,0-.14,0-.22,0v.88h-.88,0v-.88h.88v-.88h.88v.87h0Z"/>
      <path d="m1.78.74h.88v.87h.88v.89h0c-.29,0-.58,0-.88,0v-.88h-.88v-.88h0Z"/>
      <path d="m8,6.96h.89v.89h0c-.29,0-.59,0-.89,0v-.89h0Z"/>
      <path d="m8.89,7.85h.89c0,.3,0,.6,0,.89,0,0,0,0,0,0h-.89v-.89h0Z"/>
      <path d="m6.21,5.17h.89v.89h0c-.29,0-.59,0-.89,0v-.89h0Z"/>
      <path d="m5.32,4.28h.89v.89s0,0,0,0h-.89v-.89h0Z"/>
      <path d="m2.67,12.28v.89c-.31,0-.6,0-.89,0,0,0,0,0,0,0v-.89h.89,0Z"/>
      <path d="m4.43,3.39h.89c0,.31,0,.6,0,.89,0,0,0,0,0,0h-.89v-.89h0Z"/>
      <path d="m7.1,6.07h.89c0,.3,0,.6,0,.89,0,0,0,0,0,0h-.89v-.89h0Z"/>
      <path d="m3.53,2.5h.89c0,.31,0,.6,0,.89,0,0,0,0,0,0h-.89v-.89h0Z"/>
      <path class="cls-1" d="m3.54,2.49v.89h.89v.89h.89v.89h.89v.89h.89v.89h.89v.89h.89v.89h.89v.88h-3.56v1.77h.88v1.78h.89v1.79c-.6,0-1.19,0-1.79,0v-1.78h-.89c0-.58,0-1.15,0-1.73,0-.01,0-.02-.02-.06h-.88c0-.29,0-.57,0-.87h-.88v.88h-.88v.89h-.89v.89h-.89V.73c.3,0,.59,0,.89,0,0,.29,0,.57,0,.88h.88v.88h.88Z"/>
    </g>
  </g>
</svg>